# xmcd
#
# Track frame offsets:
#	150
#	13815
#	26077
#	39625
#	56258
#	67142
#	79315
#	91227
#	110295
#	130373
#	148101
#	163654
#	179135
#	193254
#	206516
#	218224
#	234418
#	247847
#
# Disc length: 3430 seconds
#
# Revision: 1
# Processed by: cddbd v1.5.1PL0 Copyright (c) Steve Scherf et al.
# Submitted via: audiograbber 1.83.01
#
DISCID=0a0d6412
DTITLE=Rick Hopkins - Country Memories and Dreams
DYEAR=1900
DGENRE=Country
TTITLE0=Sun Of Trumby
TTITLE1=Little Red Bonnett
TTITLE2=Maggie
TTITLE3=Coat Of Many Colours
TTITLE4=Old Man Ted
TTITLE5=Don't Sell Daddy Anymore Whisky
TTITLE6=Goobye Little Brother
TTITLE7=Barney Joe
TTITLE8=Look At Me
TTITLE9=Old Gilbert
TTITLE10=Little Yodelling Lass
TTITLE11=Big Hat, Big Boots
TTITLE12=Memories And Dreams
TTITLE13=Danny Boy
TTITLE14=Leave Him In The Longyard
TTITLE15=Higher Ground
TTITLE16=Dad Was A Drover
TTITLE17=Irish Prayer
EXTD=
EXTT0=
EXTT1=
EXTT2=
EXTT3=
EXTT4=
EXTT5=
EXTT6=
EXTT7=
EXTT8=
EXTT9=
EXTT10=
EXTT11=
EXTT12=
EXTT13=
EXTT14=
EXTT15=
EXTT16=
EXTT17=
PLAYORDER=
